<svg id="Capa_1" data-name="Capa 1" xmlns="http://www.w3.org/2000/svg" viewBox="0 0 82.03 30.89"><defs><style>.cls-1{fill:#dc3545;}</style></defs><title>Logo</title><path class="cls-1" d="M13.76,5.61A5.87,5.87,0,0,0,9.37,4.12,6.9,6.9,0,0,0,5.23,6,4.24,4.24,0,0,0,3.61,9.59a3.43,3.43,0,0,0,.71,1.62c.47.57.84.85,1.13.83s.36-.26.32-.7a5.22,5.22,0,0,1,3.28-5C8.39,8.21,7.55,11,6.58,14.77s-1.42,6-1.36,6.71S5.87,22.66,7,23a1.34,1.34,0,0,1,.2,0,.64.64,0,0,0,.54-.71,15.87,15.87,0,0,1,.54-2.95L9,16.41a3.71,3.71,0,0,0,2.18.54,4.76,4.76,0,0,0,3.81-2.31A7.75,7.75,0,0,0,16,9.81,6,6,0,0,0,13.76,5.61Zm-4.2,9.73a1.42,1.42,0,0,1-.36,0,75.43,75.43,0,0,1,2.33-8.29.27.27,0,0,0,0-.19.77.77,0,0,0-.34-.58,3.21,3.21,0,0,0-.73-.38c.09,0,.28-.06.38-.06a2.67,2.67,0,0,1,3,2.66C14.09,11.19,13.09,15,9.56,15.34Z"/><path class="cls-1" d="M37.88,7.88a.43.43,0,0,0,.47-.23,15.45,15.45,0,0,1,.81-1.33s.05-.05.05-.13a1,1,0,0,0-.45-.7A2.32,2.32,0,0,0,37.63,5a1.19,1.19,0,0,0-.71.28A2.34,2.34,0,0,0,36.63,7,1.35,1.35,0,0,0,37.88,7.88Z"/><path class="cls-1" d="M78.74,11.74l.22-1.1A6.87,6.87,0,0,0,79,8.78c-.17-2-1.23-3.22-3.26-3a4.19,4.19,0,0,0-3.29,2.49,8.62,8.62,0,0,0-.91,2.54A5.71,5.71,0,0,1,70.52,12c-.23.18-.53.43-1,.74a20.62,20.62,0,0,1-.7-3.7,7.29,7.29,0,0,1,.47-1.73c.15-.78-.51-.86-1.08-.81-1,.18-1.27.66-1.69,1.76l-.38,1c-.15.48-.3.87-.41,1.18h0a6,6,0,0,1-1.49,2.07c-.22.18-.53.42-1,.73a20.52,20.52,0,0,1-.7-3.69,7,7,0,0,1,.47-1.73c.15-.78-.51-.86-1.08-.81-1,.17-1.27.66-1.69,1.76l-.38,1c-.12.4-.25.73-.35,1h0a21.64,21.64,0,0,1-2,4.18C56.78,16.31,56.18,17,55.75,17a17.39,17.39,0,0,1,.64-3.82,34.36,34.36,0,0,1,1.2-4V9.07a.12.12,0,0,0,0-.08c0-.22-.2-.42-.52-.64A2.14,2.14,0,0,0,56,8c-.24,0-.39.12-.43.31a7.08,7.08,0,0,0-.33.87,2.6,2.6,0,0,0-2.77-1.44,3,3,0,0,0-2.07,1.65,11.82,11.82,0,0,0-1.24,3.11A20.42,20.42,0,0,1,47.39,16c-.79,1.24-1.39,1.89-1.82,1.93A40.57,40.57,0,0,1,47,11.56a68.36,68.36,0,0,1,2-6.66l0-.06V4.76c0-.22-.19-.42-.51-.63a2.08,2.08,0,0,0-1.12-.37c-.25,0-.4.12-.44.31A57.06,57.06,0,0,0,45.09,10a2.61,2.61,0,0,0-2.7-1.35,3,3,0,0,0-2.07,1.66,11.81,11.81,0,0,0-1.26,3.2,21.78,21.78,0,0,1-1.7,3.38c-.79,1.24-1.39,1.89-1.82,1.93a18.27,18.27,0,0,1,.79-4,42.08,42.08,0,0,1,1.39-4.37l0-.06v-.08c0-.22-.2-.42-.52-.64-.92-.54-1.48-.41-1.55,0a38.59,38.59,0,0,0-1.43,4.5,20.35,20.35,0,0,1-1.61,3.2c-.79,1.24-1.39,1.9-1.82,1.93a38.3,38.3,0,0,1,1.41-6.33,68.36,68.36,0,0,1,1.95-6.66l0-.06V6.05c0-.21-.2-.41-.52-.63a2.14,2.14,0,0,0-1.12-.37c-.24,0-.4.12-.44.31a60.68,60.68,0,0,0-1.77,5.88A2.61,2.61,0,0,0,27.61,9.9c-.73.06-1.41.61-2.06,1.65a11.56,11.56,0,0,0-1.28,3.27c-1.42,3.37-2.85,5-4.13,5.3a1.87,1.87,0,0,1-2.33-1.76c3-.26,5.09-3.77,5.08-5.43a2.32,2.32,0,0,0-2.71-2.33A4.35,4.35,0,0,0,16.91,13a8.45,8.45,0,0,0-1.32,4.61,3.61,3.61,0,0,0,4.67,3.55,5.3,5.3,0,0,0,3.46-3.14c.07-.13.11-.24.17-.37,0,.24,0,.49,0,.71a2.84,2.84,0,0,0,.26,1.07,2.09,2.09,0,0,0,1.1.83,4,4,0,0,0,1.8.3c.41,0,1-.93,1.76-2.69a5.09,5.09,0,0,0-.08,1.29c0,.14,0,.22.05.24.1.24.39.43.84.61a2.61,2.61,0,0,0,1.19.22c.83-.07,1.72-1,2.67-2.65a5.63,5.63,0,0,0,0,1,2,2,0,0,0,.08.38,1.53,1.53,0,0,0,.85.61,2.75,2.75,0,0,0,1.19.22c.94-.08,2-1.28,3.12-3.55,0,.27,0,.55,0,.8a2.92,2.92,0,0,0,.26,1.06A2,2,0,0,0,40,19a3.79,3.79,0,0,0,1.8.31c.4,0,1-.93,1.75-2.69a5.09,5.09,0,0,0-.08,1.29c0,.13,0,.22,0,.24.1.24.39.43.84.61a2.63,2.63,0,0,0,1.19.22c1-.08,2-1.28,3.13-3.53,0,.26,0,.54,0,.78A3,3,0,0,0,49,17.3a2,2,0,0,0,1.11.82,3.78,3.78,0,0,0,1.79.31c.44,0,1-1,1.83-2.83a5.5,5.5,0,0,0-.06,1.23,1.59,1.59,0,0,0,.09.43,1.45,1.45,0,0,0,.85.61,2.61,2.61,0,0,0,1.19.22c.65-.06,1.34-.64,2.08-1.74a3.53,3.53,0,0,0,3.06,1.29c.14,0,.35-.06.67-.11a2.48,2.48,0,0,0,2-2.91,1.64,1.64,0,0,0-.07-.43,6.91,6.91,0,0,0,2.9-3.27h0v0a1.34,1.34,0,0,0,.06-.12v0l.17-.44c.25,1.32.49,2.49.77,3.51a7.83,7.83,0,0,1-3.13.92c-.19,0-.48.43-.46.72a.58.58,0,0,0,.08.22,3.51,3.51,0,0,0,3.2,1.43c.14,0,.35-.05.67-.11a2.47,2.47,0,0,0,2-2.9,1.64,1.64,0,0,0-.07-.43,10.5,10.5,0,0,0,1.66-1.35c0,.22,0,.44,0,.66.19,2.19,1.44,3.69,3.63,3.49A3,3,0,0,0,77.19,15,8.09,8.09,0,0,0,78,13.73c.13,2.41-.56,5.67-4.26,8.49-6.84,5.21-40.1,1.07-46.66.74a1.56,1.56,0,0,0-1.63,1.56v1.37a1.55,1.55,0,0,0,1.51,1.56C33.16,27.61,66,31.13,75,24,78.41,21.35,79.94,15.83,78.74,11.74ZM18.3,15.34c.65-1.93,1.77-3.5,2.72-3.58a.38.38,0,0,1,.47.42c0,.89-1.59,4.55-3.63,5.3,0,0,0,0,0,0A9.15,9.15,0,0,1,18.3,15.34Zm11.13-1.49c-.28.79-.53,1.44-.73,1.92L28,17.41c-.52,1.22-.91,1.82-1.15,1.85a.45.45,0,0,1-.46-.26,2.62,2.62,0,0,1-.2-.78,10.32,10.32,0,0,1,1.39-5.57,2.48,2.48,0,0,1,1.73-1.38c.25,0,.5.32.75,1Zm14.78-1.29c-.29.79-.53,1.44-.74,1.92l-.7,1.64c-.52,1.22-.9,1.82-1.14,1.84a.43.43,0,0,1-.46-.26,2.23,2.23,0,0,1-.21-.77,10.24,10.24,0,0,1,1.4-5.57A2.46,2.46,0,0,1,44.09,10c.24,0,.49.31.74,1Zm10-.74c-.28.82-.52,1.44-.73,1.9l-.65,1.58c-.53,1.16-.88,1.76-1.12,1.79a.46.46,0,0,1-.46-.26A2.53,2.53,0,0,1,51,16a9.64,9.64,0,0,1,.75-4.21c.62-1.61,1.39-2.44,2.31-2.52.22,0,.56.5.72,1Zm6.11-.56s0,0,0,0l.16-.4c.26,1.31.49,2.49.77,3.5a7.24,7.24,0,0,1-2.67.84A31.92,31.92,0,0,0,60.28,11.26Zm.16,5.17-.53.1a1.15,1.15,0,0,1-1-.35,9.39,9.39,0,0,0,2.43-.87C61.44,15.74,61,16.27,60.44,16.43Zm6.25-.55c-.24,0-.43.09-.54.1a1.08,1.08,0,0,1-1-.35,9.39,9.39,0,0,0,2.43-.87C67.69,15.19,67.22,15.72,66.69,15.88ZM75,15.64c-.73.07-1.13-.47-1.23-1.63-.32-2.35,1.4-7.1,3.14-7.12a1,1,0,0,1,.94.46,2.53,2.53,0,0,0-.81,2.31,3,3,0,0,0,.16.62l0,0,.1.23c0,.06,0,.13.08.19A10.12,10.12,0,0,1,77.73,12C77.13,14,76.1,15.55,75,15.64Z"/></svg>